{
  "accessors": [
    {
      "bufferView": 2,
      "componentType": 5126,
      "count": 58815,
      "max": [
        0.48946499824523926,
        0.4935779869556427,
        0.82890802621841431
      ],
      "min": [
        -0.44571399688720703,
        -0.49977600574493408,
        0.029479999095201492
      ],
      "type": "VEC3"
    },
    {
      "bufferView": 2,
      "byteOffset": 705780,
      "componentType": 5126,
      "count": 58815,
      "max": [
        0.99992656707763672,
        0.99991071224212646,
        0.99998128414154053
      ],
      "min": [
        -0.99987322092056274,
        -0.99994909763336182,
        -0.99999713897705078
      ],
      "type": "VEC3"
    },
    {
      "bufferView": 3,
      "componentType": 5126,
      "count": 58815,
      "max": [
        0.99983292818069458,
        0.99995887279510498,
        0.99998176097869873,
        1
      ],
      "min": [
        -0.999916672706604,
        -0.99974203109741211,
        -0.99973297119140625,
        -1
      ],
      "type": "VEC4"
    },
    {
      "bufferView": 1,
      "componentType": 5126,
      "count": 58815,
      "max": [
        0.99645698070526123,
        0.99998801946640015
      ],
      "min": [
        0.00011899999663000926,
        9.0000003183376975e-06
      ],
      "type": "VEC2"
    },
    {
      "bufferView": 0,
      "componentType": 5125,
      "count": 328467,
      "max": [
        58814
      ],
      "min": [
        0
      ],
      "type": "SCALAR"
    }
  ],
  "asset": {
    "extras": {
      "author": "thesidekick (https://sketchfab.com/thesidekick)",
      "license": "CC-BY-4.0 (http://creativecommons.org/licenses/by/4.0/)",
      "source": "https://sketchfab.com/3d-models/pink-rose-0223e8e9df034fb7a0234e957051ff97",
      "title": "Pink Rose"
    },
    "generator": "Sketchfab-7.68.0",
    "version": "2.0"
  },
  "bufferViews": [
    {
      "buffer": 0,
      "byteLength": 1313868,
      "byteOffset": 0,
      "name": "floatBufferViews",
      "target": 34963
    },
    {
      "buffer": 0,
      "byteLength": 470520,
      "byteOffset": 1313868,
      "byteStride": 8,
      "name": "floatBufferViews",
      "target": 34962
    },
    {
      "buffer": 0,
      "byteLength": 1411560,
      "byteOffset": 1784388,
      "byteStride": 12,
      "name": "floatBufferViews",
      "target": 34962
    },
    {
      "buffer": 0,
      "byteLength": 941040,
      "byteOffset": 3195948,
      "byteStride": 16,
      "name": "floatBufferViews",
      "target": 34962
    }
  ],
  "buffers": [
    {
      "byteLength": 4136988,
      "uri": "scene.bin"
    }
  ],
  "images": [
    {
      "uri": "textures/Pink_rose_retopo_baseColor.jpeg"
    },
    {
      "uri": "textures/Pink_rose_retopo_metallicRoughness.png"
    },
    {
      "uri": "textures/Pink_rose_retopo_normal.png"
    }
  ],
  "materials": [
    {
      "doubleSided": true,
      "emissiveFactor": [
        0,
        0,
        0
      ],
      "name": "Pink_rose_retopo",
      "normalTexture": {
        "index": 2,
        "scale": 0.63806818181818181,
        "texCoord": 0
      },
      "occlusionTexture": {
        "index": 1,
        "strength": 1,
        "texCoord": 0
      },
      "pbrMetallicRoughness": {
        "baseColorFactor": [
          1,
          1,
          1,
          1
        ],
        "baseColorTexture": {
          "index": 0,
          "texCoord": 0
        },
        "metallicFactor": 0,
        "metallicRoughnessTexture": {
          "index": 1,
          "texCoord": 0
        },
        "roughnessFactor": 0.73503787878787874
      }
    }
  ],
  "meshes": [
    {
      "primitives": [
        {
          "attributes": {
            "NORMAL": 1,
            "POSITION": 0,
            "TANGENT": 2,
            "TEXCOORD_0": 3
          },
          "indices": 4,
          "material": 0,
          "mode": 4
        }
      ]
    }
  ],
  "nodes": [
    {
      "children": [
        1
      ],
      "name": "RootNode (gltf orientation matrix)",
      "rotation": [
        -0.70710678118654746,
        -0,
        -0,
        0.70710678118654757
      ]
    },
    {
      "children": [
        2
      ],
      "name": "RootNode (model correction matrix)"
    },
    {
      "children": [
        3
      ],
      "name": "Pink_rose_retopo_SF.obj.cleaner.materialmerger.gles"
    },
    {
      "mesh": 0,
      "name": ""
    }
  ],
  "samplers": [
    {
      "magFilter": 9729,
      "minFilter": 9987,
      "wrapS": 10497,
      "wrapT": 10497
    }
  ],
  "scene": 0,
  "scenes": [
    {
      "name": "OSG_Scene",
      "nodes": [
        0
      ]
    }
  ],
  "textures": [
    {
      "sampler": 0,
      "source": 0
    },
    {
      "sampler": 0,
      "source": 1
    },
    {
      "sampler": 0,
      "source": 2
    }
  ]
}

